<svg viewBox="0 0 64 64" xmlns="http://www.w3.org/2000/svg"><path fill="#7A950F" d="M0 0h64v64H0z" style="fill:#241c1c"/><path fill-rule="evenodd" d="M16.8 34h10.3c1.6 0 2.9 1.3 2.9 2.9v8.3c0 1.6-1.3 2.9-2.9 2.9H16.8c-1.6 0-2.9-1.3-2.9-2.9v-8.3c.1-1.6 1.4-2.9 2.9-2.9Z" clip-rule="evenodd" style="fill:#2a7fff"/><path fill-rule="evenodd" d="M16.8 16.423h10.3c1.6 0 2.9 1.3 2.9 2.9v8.3c0 1.6-1.3 2.9-2.9 2.9H16.8c-1.6 0-2.9-1.3-2.9-2.9v-8.3c.1-1.6 1.4-2.9 2.9-2.9z" clip-rule="evenodd" style="fill:#ff8f00;fill-opacity:1"/><path fill-rule="evenodd" d="M36.607 34h10.3c1.6 0 2.9 1.3 2.9 2.9v8.3c0 1.6-1.3 2.9-2.9 2.9h-10.3c-1.6 0-2.9-1.3-2.9-2.9v-8.3c.1-1.6 1.4-2.9 2.9-2.9z" clip-rule="evenodd" style="fill:#c837ab"/><path fill-rule="evenodd" d="M36.607 16.423h10.3c1.6 0 2.9 1.3 2.9 2.9v8.3c0 1.6-1.3 2.9-2.9 2.9h-10.3c-1.6 0-2.9-1.3-2.9-2.9v-8.3c.1-1.6 1.4-2.9 2.9-2.9z" clip-rule="evenodd" style="fill:#aad400"/></svg>
